# AST/ASF file generated using VICON BodyLanguage
# -----------------------------------------------
:version 1.10
:name VICON
:units
  mass 1.0
  length 0.45
  angle deg
:documentation
   .ast/.asf automatically generated from VICON data using
   VICON BodyBuilder and BodyLanguage model FoxedUp or BRILLIANT.MOD
:root
   order TX TY TZ RX RY RZ
   axis XYZ
   position 0 0 0  
   orientation 0 0 0 
:bonedata
  begin
     id 1 
     name lhipjoint
     direction 0.598477 -0.721498 0.348234 
     length 2.38516 
     axis 0 0 0  XYZ
  end
  begin
     id 2 
     name lfemur
     direction 0.34202 -0.939693 0  
     length 6.81097  
     axis 0 0 20  XYZ
    dof rx ry rz
    limits (-160.0 20.0)
           (-70.0 70.0)
           (-60.0 70.0)
  end
  begin
     id 3 
     name ltibia
     direction 0.34202 -0.939693 0   
     length 7.43697   
     axis 0 0 20   XYZ
    dof rx
    limits (-10.0 170.0)
  end
  begin
     id 4 
     name lfoot
     direction 0.0644912 -0.177188 0.982062   
     length 2.0384   
     axis -90 7.62852e-016 20   XYZ
    dof rx rz
    limits (-45.0 90.0)
           (-70.0 20.0)
  end
  begin
     id 5 
     name ltoes
     direction 1.53517e-011 -4.21905e-011 1   
     length 1.02854   
     axis -90 7.62852e-016 20   XYZ
    dof rx
    limits (-90.0 20.0)
  end
  begin
     id 6 
     name rhipjoint
     direction -0.591517 -0.726138 0.350474   
     length 2.36992  
     axis 0 0 0  XYZ 
  end
  begin
     id 7 
     name rfemur
     direction -0.34202 -0.939693 0   
     length 6.93503   
     axis 0 0 -20   XYZ
    dof rx ry rz
    limits (-160.0 20.0)
           (-70.0 70.0)
           (-70.0 60.0)
  end
  begin
     id 8 
     name rtibia
     direction -0.34202 -0.939693 0   
     length 7.45107   
     axis 0 0 -20   XYZ
    dof rx
    limits (-10.0 170.0)
 end
 begin
     id 9 
     name rfoot
     direction -0.0677555 -0.186157 0.980181   
     length 1.90244  
     axis -90 -7.62852e-016 -20   XYZ
    dof rx rz
    limits (-45.0 90.0)
           (-20.0 70.0)
  end
  begin
     id 10 
     name rtoes
     direction -1.53409e-011 -4.21428e-011 1   
     length 0.961454   
     axis -90 -7.62852e-016 -20   XYZ
    dof rx
    limits (-90.0 20.0)
  end
  begin
     id 11 
     name lowerback
     direction -0.0289484 0.992437 0.119291   
     length 1.96261   
     axis 0 0 0   XYZ
    dof rx ry rz
    limits (-20.0 45.0)
           (-30.0 30.0)
           (-30.0 30.0)
  end
  begin
     id 12 
     name upperback
     direction 0.0109352 0.999834 0.0146028   
     length 1.96894   
     axis 0 0 0   XYZ
    dof rx ry rz
    limits (-20.0 45.0)
           (-30.0 30.0)
           (-30.0 30.0)
  end
  begin
     id 13 
     name thorax
     direction 0.0232227 0.998895 -0.0408582   
     length 2.00029   
     axis 0 0 0   XYZ
    dof rx ry rz
    limits (-20.0 45.0)
           (-30.0 30.0)
           (-30.0 30.0)
  end
  begin
     id 14 
     name lowerneck
     direction -0.00291659 0.999583 0.0287188   
     length 1.72722   
     axis 0 0 0   XYZ
    dof rx ry rz
    limits (-20.0 45.0)
           (-30.0 30.0)
           (-30.0 30.0)
  end
  begin
     id 15 
     name upperneck
     direction 0.0277639 0.998467 -0.0478817   
     length 1.68525   
     axis 0 0 0   XYZ
    dof rx ry rz
    limits (-20.0 45.0)
           (-30.0 30.0)
           (-30.0 30.0)
  end
  begin
     id 16
     name head
     direction 0.00895921 0.999741 -0.020943  
     length 1.78934  
     axis 0 0 0   XYZ
    dof rx ry rz
    limits (-20.0 45.0)
           (-30.0 30.0)
           (-30.0 30.0)
  end
  begin
     id 17 
     name lclavicle
     direction 0.907972 0.393865 -0.143029  
     length 3.37543  
     axis 0 0 0   XYZ
    dof ry rz
    limits (-20.0 10.0)
           (0.0 20.0)
  end
  begin
     id 18 
     name lhumerus
     direction 1 -4.48915e-011 -1.10425e-027   
     length 4.94762   
     axis -180 -30 -90   XYZ
    dof rx ry rz
    limits (-60.0 90.0)
           (-90.0 90.0)
           (-90.0 90.0)
  end
  begin
     id 19
     name lradius
     direction 1 1.63657e-005 -9.44877e-006   
     length 3.11144   
     axis -180 -30 -90   XYZ
    dof rx
    limits (-10.0 170.0)
  end
  begin
     id 20
     name lwrist
     direction 1 -5.04565e-007 -1.8883e-005   
     length 1.55572   
     axis 1.22104e-015 90 90   XYZ
    dof ry
    limits (-180.0 0.0)
 end
  begin
     id 21 
     name lhand
     direction 1 -4.48949e-011 -2.20333e-027   
     length 0.686387   
     axis 1.40591e-015 90 90   XYZ
    dof rx rz
    limits (-90.0 90.0)
           (-45.0 45.0)
  end
  begin
     id 22 
     name lfingers
     direction 1 -4.49191e-011 -4.40665e-027   
     length 0.553383   
     axis 2.81182e-015 90 90   XYZ
    dof rx
    limits (0.0 90.0)
  end
  begin
     id 23
     name lthumb
     direction 0.707107 -6.35116e-011 0.707107   
     length 0.79455   
     axis -90 45 2.85299e-015   XYZ
    dof rx rz
    limits (-45.0 45.0)
           (-45.0 45.0)
  end
  begin
     id 24 
     name rclavicle
     direction -0.947168 0.319303 -0.0302977   
     length 3.53547  
     axis 0 0 0   XYZ 
    dof ry rz
    limits (-10.0 20.0)
           (-20.0 0.0)
  end
  begin
     id 25 
     name rhumerus
     direction -1 -0.000401632 0.000196042  
     length 4.77566   
     axis -180 30 90   XYZ
    dof rx ry rz
    limits (-90.0 60.0)
           (-90.0 90.0)
           (-90.0 90.0)
  end
  begin
     id 26 
     name rradius
     direction -1 -4.49012e-011 -4.87197e-027   
     length 3.21433   
     axis -180 30 90   XYZ
    dof rx
    limits (-10.0 170.0)
  end
  begin
     id 27 
     name rwrist
     direction -1 -4.48899e-011 -5.86351e-027   
     length 1.60716   
     axis 3.17445e-015 -90 -90   XYZ
    dof ry
    limits (-180.0 0.0)
  end
  begin
     id 28
     name rhand
     direction -0.999958 0.00678358 -0.00613214   
     length 0.625487   
     axis 7.48284e-015 -90 -90   XYZ
    dof rx rz
    limits (-90.0 90.0)
           (-45.0 45.0)
  end
  begin
     id 29
     name rfingers
     direction -1 -4.48756e-011 -2.3454e-026   
     length 0.505648   
     axis 1.49657e-014 -90 -90   XYZ
    dof rx
    limits (0.0 90.0)
  end
  begin
     id 30
     name rthumb
     direction -0.708559 0.00587598 0.705627   
     length 0.722099   
     axis -90 -45 -2.85299e-015   XYZ
    dof rx rz
    limits (-45.0 45.0)
           (-45.0 45.0)
  end
:hierarchy
  begin
    root lhipjoint rhipjoint lowerback
    lhipjoint lfemur
    lfemur ltibia
    ltibia lfoot
    lfoot ltoes
    rhipjoint rfemur
    rfemur rtibia
    rtibia rfoot
    rfoot rtoes
    lowerback upperback
    upperback thorax
    thorax lowerneck lclavicle rclavicle
    lowerneck upperneck
    upperneck head
    lclavicle lhumerus
    lhumerus lradius
    lradius lwrist
    lwrist lhand lthumb
    lhand lfingers
    rclavicle rhumerus
    rhumerus rradius
    rradius rwrist
    rwrist rhand rthumb
    rhand rfingers
  end

#!OML:ASF C:\Documents and Settings\Administrator\Desktop\SteveTeapot.ASF
:FULLY-SPECIFIED
:DEGREES
1315
root 0.509536 16.5108 -7.54805 19.8151 1.21234 1.62836
lowerback -14.6887 -0.879044 -3.45955
upperback -4.10842 -0.598148 -1.10928
thorax 3.90583 -0.309031 0.684658
lowerneck -4.9914 -0.98323 -0.601969
upperneck 2.39602 -1.20217 -1.92343
head 1.57761 -0.647723 -0.532015
rclavicle -2.41026e-015 1.39149e-014
rhumerus -86.5273 27.3517 -106.31
rradius 93.2031
rwrist -68.0166
rhand -14.8436 -61.0135
rfingers 7.12502
rthumb 11.3156 -269.312
lclavicle -2.41026e-015 1.39149e-014
lhumerus -60.7803 -10.0236 79.9566
lradius 85.4309
lwrist 5.07235
lhand -8.71923 -9.29616
lfingers 7.12502
lthumb 17.2167 19.9611
rfemur -32.7529 -8.91931 19.9607
rtibia 37.2578
rfoot -26.4676 -0.26221
rtoes -16.182
lfemur -33.7549 2.03895 -23.4881
ltibia 36.3758
lfoot -20.4311 4.79559
ltoes -7.8683
1316
root 0.521403 16.5088 -7.54723 19.8796 1.30951 1.57698
lowerback -14.8129 -0.876932 -3.55039
upperback -4.03804 -0.569156 -1.19977
thorax 4.04584 -0.297536 0.644188
lowerneck -5.11822 -1.04631 -0.557502
upperneck 2.41674 -1.28907 -1.87328
head 1.6061 -0.690313 -0.527565
rclavicle 3.67752e-015 2.38542e-015
rhumerus -87.4513 27.6887 -106.748
rradius 94.3843
rwrist -70.276
rhand -14.0657 -61.2981
rfingers 7.12502
rthumb 12.0658 -269.07
lclavicle 3.67752e-015 2.38542e-015
lhumerus -60.4692 -10.3535 78.1275
lradius 85.3693
lwrist 4.59963
lhand -9.80218 -9.77053
lfingers 7.12502
lthumb 16.1741 19.5747
rfemur -32.8083 -8.99864 20.0009
rtibia 37.282
rfoot -26.5514 -0.129227
rtoes -15.6406
lfemur -33.919 1.95751 -23.4541
ltibia 36.5717
lfoot -20.5809 4.71198
ltoes -7.29781
1317
root 0.533996 16.5072 -7.55186 19.9276 1.59904 1.4212
lowerback -14.801 -0.908708 -3.44637
upperback -3.99129 -0.621316 -1.28167
thorax 4.08898 -0.323675 0.489802
lowerneck -5.23219 -1.05684 -0.701236
upperneck 2.39508 -1.30547 -1.51316
head 1.62178 -0.692231 -0.392069
rclavicle -2.5345e-015 1.31198e-014
rhumerus -88.4131 27.9985 -107.352
rradius 95.5489
rwrist -72.3836
rhand -13.6387 -61.0292
rfingers 7.12502
rthumb 12.4775 -269.363
lclavicle -2.5345e-015 1.31198e-014
lhumerus -59.9288 -10.6628 76.1245
lradius 85
lwrist 3.98226
lhand -10.9548 -9.70159
lfingers 7.12502
lthumb 15.064 19.7303
rfemur -32.8675 -9.25026 20.2269
rtibia 37.2979
rfoot -26.5374 -0.207809
rtoes -15.6356
lfemur -34.1402 1.82637 -23.2836
ltibia 36.8096
lfoot -20.6657 4.66991
ltoes -7.36542
1318
root 0.544735 16.5016 -7.56721 20.0873 1.77771 1.16149
lowerback -14.5956 -0.873294 -3.30772
upperback -4.10574 -0.604248 -1.35609
thorax 3.85495 -0.310669 0.340002
lowerneck -5.14909 -1.12352 -0.792801
upperneck 2.28775 -1.40167 -1.21172
head 1.57441 -0.733405 -0.284132
rclavicle 1.04362e-015 -9.93923e-015
rhumerus -89.4531 28.1364 -108.092
rradius 96.5707
rwrist -73.7069
rhand -13.8285 -60.9442
rfingers 7.12502
rthumb 12.2945 -269.437
lclavicle 1.04362e-015 -9.93923e-015
lhumerus -59.433 -11.0208 73.9637
lradius 84.6412
lwrist 3.42531
lhand -11.7336 -9.67105
lfingers 7.12502
lthumb 14.3137 19.8156
rfemur -33.1166 -9.32976 20.5695
rtibia 37.3104
rfoot -26.4346 -0.360601
rtoes -15.7744
lfemur -34.573 1.79839 -23.0154
ltibia 37.0813
lfoot -20.6857 4.59518
ltoes -7.41106
1319
root 0.560156 16.4983 -7.57481 20.3791 1.74678 0.982565
lowerback -14.6455 -0.81361 -3.29256
upperback -4.252 -0.526419 -1.42193
thorax 3.72473 -0.269275 0.276775
lowerneck -5.01859 -1.17219 -0.935519
upperneck 2.19972 -1.46779 -0.987383
head 1.52547 -0.761963 -0.190734
rclavicle 5.31749e-015 -5.1684e-015
rhumerus -90.3848 28.4274 -108.857
rradius 97.2965
rwrist -74.0868
rhand -14.9419 -60.1545
rfingers 7.12502
rthumb 11.2208 -89.8344
lclavicle 5.31749e-015 -5.1684e-015
lhumerus -59.0149 -11.3423 71.7871
lradius 84.2735
lwrist 2.84024
lhand -12.7826 -9.99671
lfingers 7.12502
lthumb 13.3028 19.5587
rfemur -33.5336 -9.46633 20.7915
rtibia 37.361
rfoot -26.432 -0.0782464
rtoes -15.5395
lfemur -35.0723 1.84049 -22.9086
ltibia 37.3361
lfoot -20.7096 4.52274
ltoes -7.13311
1320
root 0.573713 16.4949 -7.57498 20.7502 1.50714 0.810666
lowerback -15.0637 -0.643717 -3.37083
upperback -4.29946 -0.266572 -1.53087
thorax 3.89222 -0.142463 0.249436
lowerneck -4.84657 -1.19454 -1.17796
upperneck 1.95588 -1.50134 -0.554129
head 1.42243 -0.770109 -0.0141962
rclavicle -6.36111e-015 1.82882e-014
rhumerus -90.9013 28.6334 -109.399
rradius 97.7476
rwrist -73.9775
rhand -15.7889 -58.8919
rfingers 7.12502
rthumb 10.4038 -88.6145
lclavicle -6.36111e-015 1.82882e-014
lhumerus -58.2627 -11.8355 69.5219
lradius 83.8161
lwrist 2.43574
lhand -13.9191 -9.90843
lfingers 7.12502
lthumb 12.2071 19.7154
rfemur -34.0859 -9.4355 20.9638
rtibia 37.4532
rfoot -26.4631 0.302827
rtoes -15.1677
lfemur -35.5864 1.87721 -22.8331
ltibia 37.5745
lfoot -20.7294 4.7158
ltoes -6.84894
1321
root 0.580344 16.4886 -7.58055 21.1693 1.14122 0.905687
lowerback -15.4875 -0.499068 -3.85086
upperback -4.29364 0.0302423 -1.73874
thorax 4.11639 -0.000583765 0.35361
lowerneck -5.19968 -1.25827 -1.3192
upperneck 2.18888 -1.58305 -0.168102
head 1.56477 -0.80566 0.123994
rclavicle -8.64713e-015 -3.18055e-015
rhumerus -91.0746 28.7602 -109.75
rradius 98.065
rwrist -74.0239
rhand -14.7842 -59.2886
rfingers 7.12502
rthumb 11.3729 -88.9602
lclavicle -8.64713e-015 -3.18055e-015
lhumerus -57.1029 -12.2313 67.039
lradius 83.1139
lwrist 2.19749
lhand -14.9079 -9.8475
lfingers 7.12502
lthumb 11.2536 19.8306
rfemur -34.7309 -9.17893 20.8065
rtibia 37.5614
rfoot -26.4447 0.334387
rtoes -15.2694
lfemur -36.1785 1.84256 -23.0244
ltibia 37.7978
lfoot -20.7133 4.99532
ltoes -6.76463
1322
root 0.5902 16.4828 -7.59041 21.4744 1.04093 0.861164
lowerback -15.6055 -0.430654 -4.08824
upperback -4.38013 0.169714 -1.9082
thorax 4.08274 0.0688084 0.334982
lowerneck -5.37885 -1.36145 -1.23753
upperneck 2.47125 -1.72512 -0.091914
head 1.68859 -0.875348 0.127538
rclavicle 2.98177e-016 7.95139e-015
rhumerus -91.3926 28.8614 -110.273
rradius 98.2851
rwrist -74.4543
rhand -13.6067 -59.0758
rfingers 7.12502
rthumb 12.5083 -88.6814
lclavicle 2.98177e-016 7.95139e-015
lhumerus -56.1701 -12.5056 64.4447
lradius 82.3759
lwrist 2.08178
lhand -15.6988 -10.2538
lfingers 7.12502
lthumb 10.4907 19.4644
rfemur -35.1972 -9.00267 20.8141
rtibia 37.6661
rfoot -26.3755 0.291798
rtoes -15.3212
lfemur -36.6894 1.72942 -23.0155
ltibia 38.0277
lfoot -20.7344 5.19413
ltoes -7.00214
1323
root 0.600957 16.4782 -7.60145 21.6293 1.33991 0.573954
lowerback -15.4729 -0.413247 -4.04364
upperback -4.49214 0.176416 -1.94978
thorax 3.89322 0.0766835 0.268029
lowerneck -5.19249 -1.46778 -1.28293
upperneck 2.44148 -1.87199 0.0481381
head 1.64882 -0.945764 0.175831
rclavicle -7.45443e-015 3.18055e-015
rhumerus -91.8224 28.7685 -110.754
rradius 98.6213
rwrist -75.1791
rhand -13.1897 -58.2461
rfingers 7.12502
rthumb 12.9104 -87.8267
lclavicle -7.45443e-015 3.18055e-015
lhumerus -55.233 -12.8109 61.848
lradius 81.6695
lwrist 2.24598
lhand -16.1165 -11.0124
lfingers 7.12502
lthumb 10.0877 18.7258
rfemur -35.4332 -9.10076 21.1936
rtibia 37.7628
rfoot -26.3509 0.160541
rtoes -15.5612
lfemur -37.0769 1.64292 -22.692
ltibia 38.2807
lfoot -20.762 5.13841
ltoes -7.32908
1324
root 0.609372 16.4722 -7.60917 21.7406 1.6177 0.384159
lowerback -15.3301 -0.39565 -4.16036
upperback -4.49268 0.213737 -2.02994
thorax 3.81418 0.0963691 0.256654
lowerneck -5.38259 -1.56839 -1.58887
upperneck 2.56044 -2.00059 0.536316
head 1.73248 -1.00213 0.374499
rclavicle 1.88845e-015 -3.81667e-014
rhumerus -91.8051 28.7677 -111.053
rradius 98.8326
rwrist -76.3275
rhand -12.9821 -58.7613
rfingers 7.12502
rthumb 13.1105 -88.3291
lclavicle 1.88845e-015 -3.81667e-014
lhumerus -53.9408 -13.0054 59.0827
lradius 80.8701
lwrist 2.76754
lhand -16.5802 -11.7568
lfingers 7.12502
lthumb 9.64037 18.0026
rfemur -35.5781 -9.10137 21.4324
rtibia 37.8173
rfoot -26.3112 -0.131137
rtoes -15.8288
lfemur -37.4099 1.53688 -22.4566
ltibia 38.569
lfoot -20.8843 5.03757
ltoes -7.20858
